<svg xmlns="http://www.w3.org/2000/svg" xmlns:xlink="http://www.w3.org/1999/xlink" viewBox="0 0 707 173"><defs><style>.cls-1,.cls-16{fill:none;}.cls-2{fill:#273d3b;}.cls-3{isolation:isolate;}.cls-4{fill:#716558;}.cls-5{fill:#34495e;}.cls-6{fill:#f39c12;}.cls-7{fill:#3498db;}.cls-61,.cls-8{fill:#f1cb9c;}.cls-21,.cls-31,.cls-34,.cls-9{opacity:0.35;}.cls-10{fill:#f2746a;}.cls-11{fill:#e7957c;}.cls-12{clip-path:url(#clip-path);}.cls-13{clip-path:url(#clip-path-2);}.cls-14{fill:#e54c67;}.cls-15,.cls-17,.cls-21,.cls-38{fill:#fff;}.cls-16,.cls-17{stroke:#d0d2d3;stroke-miterlimit:10;stroke-width:0.94px;}.cls-16{stroke-linecap:round;}.cls-18{fill:#f1ad8a;}.cls-19{fill:#395576;}.cls-20{fill:#f4f5ef;}.cls-22{fill:#404041;}.cls-23{fill:#30373d;}.cls-24{fill:#f7f7f7;}.cls-25{fill:#d1d2d4;}.cls-26{fill:#e0e0e0;}.cls-27{fill:#999;}.cls-28{fill:#f1ca9c;}.cls-29{fill:#2980b9;}.cls-30,.cls-35{fill:#aa7559;}.cls-31,.cls-34,.cls-61{mix-blend-mode:multiply;}.cls-32,.cls-34{fill:#9e6748;}.cls-33{clip-path:url(#clip-path-3);}.cls-35,.cls-61{opacity:0.8;}.cls-35{mix-blend-mode:overlay;}.cls-36{clip-path:url(#clip-path-5);}.cls-37{fill:#b2623f;}.cls-38,.cls-39,.cls-40,.cls-41,.cls-42,.cls-43,.cls-44,.cls-45{fill-rule:evenodd;}.cls-39{fill:#0c4c41;}.cls-40{fill:#50baa7;}.cls-41{fill:#41a190;}.cls-42{fill:#70ccbb;}.cls-43{fill:#fefefe;}.cls-44{fill:#359684;}.cls-45{fill:#71deca;}.cls-46{fill:#f37a52;}.cls-47,.cls-49{fill:#f1cb9b;}.cls-48{clip-path:url(#clip-path-6);}.cls-49{opacity:0.5;mix-blend-mode:screen;}.cls-50{fill:#f7cbaa;}.cls-51{fill:#737e34;}.cls-52{fill:#375576;}.cls-53{clip-path:url(#clip-path-7);}.cls-54{fill:#e54c66;}.cls-55{fill:#f1cb9a;}.cls-56{fill:#e7947c;}.cls-57{clip-path:url(#clip-path-8);}.cls-58{fill:#f0ac89;}.cls-59{fill:#e74c3c;}.cls-60{clip-path:url(#clip-path-9);}.cls-62{fill:#e89769;}.cls-63{clip-path:url(#clip-path-10);}.cls-64{fill:#716559;}.cls-65{fill:#e67e22;}</style><clipPath id="clip-path"><path id="_Clipping_Path_" data-name="&lt;Clipping Path&gt;" class="cls-1" d="M332.58,84.36V113.5h0a18.27,18.27,0,0,0,36.53,0h0V84.36Z"/></clipPath><clipPath id="clip-path-2"><path id="_Clipping_Path_2" data-name="&lt;Clipping Path&gt;" class="cls-1" d="M365.95,89.92a15.8,15.8,0,0,1-30.19,0,2.59,2.59,0,0,1,1.71-3.25,2.2,2.2,0,0,1,.48-.1v0h25.7a2.75,2.75,0,0,1,.59.11A2.59,2.59,0,0,1,365.95,89.92Z"/></clipPath><clipPath id="clip-path-3"><path id="_Clipping_Path_3" data-name="&lt;Clipping Path&gt;" class="cls-1" d="M622.21,76.46v35.36h0a22.17,22.17,0,0,0,44.33,0h0V76.46Z"/></clipPath><clipPath id="clip-path-5"><path id="_Clipping_Path_5" data-name="&lt;Clipping Path&gt;" class="cls-2" d="M656.4,88.29a12.57,12.57,0,0,1-24,0,2.06,2.06,0,0,1,1.36-2.59,1.75,1.75,0,0,1,.38-.08v0h20.45a2.19,2.19,0,0,1,.47.09A2.06,2.06,0,0,1,656.4,88.29Z"/></clipPath><clipPath id="clip-path-6"><path id="_Clipping_Path_6" data-name="&lt;Clipping Path&gt;" class="cls-1" d="M474.86,104V131.8h0a17.41,17.41,0,0,0,34.82,0h0V104Z"/></clipPath><clipPath id="clip-path-7"><path id="_Clipping_Path_7" data-name="&lt;Clipping Path&gt;" class="cls-1" d="M504.24,108.47a11.85,11.85,0,0,1-22.63,0,1.94,1.94,0,0,1,1.28-2.44,1.65,1.65,0,0,1,.36-.07v0h19.27a2.06,2.06,0,0,1,.44.08A1.94,1.94,0,0,1,504.24,108.47Z"/></clipPath><clipPath id="clip-path-8"><path id="_Clipping_Path_8" data-name="&lt;Clipping Path&gt;" class="cls-1" d="M42.16,84.55v25h0a15.65,15.65,0,0,0,31.3,0h0v-25Z"/></clipPath><clipPath id="clip-path-9"><path id="_Clipping_Path_9" data-name="&lt;Clipping Path&gt;" class="cls-1" d="M180.19,98.3v27.87h0a17.47,17.47,0,0,0,34.93,0h0V98.3Z"/></clipPath><clipPath id="clip-path-10"><path id="_Clipping_Path_10" data-name="&lt;Clipping Path&gt;" class="cls-2" d="M209,102.46a11.89,11.89,0,0,1-22.71,0A2,2,0,0,1,187.6,100a1.66,1.66,0,0,1,.36-.07v0h19.34a2.07,2.07,0,0,1,.44.08A2,2,0,0,1,209,102.46Z"/></clipPath></defs><title>Artboard 1</title><g class="cls-3"><g id="Layer_1" data-name="Layer 1"><path id="_Path_" data-name="&lt;Path&gt;" class="cls-4" d="M6.44,96.47a20.88,20.88,0,0,0,12.28,25.74A20.87,20.87,0,0,0,43.8,141.67a20.86,20.86,0,0,0,28.11,0,20.87,20.87,0,0,0,25-19.48,20.87,20.87,0,0,0,12.28-25.74,20.86,20.86,0,0,0-4.38-32.54A20.88,20.88,0,0,0,87.32,34.17a14.8,14.8,0,0,0-7.45-2h-44a14.78,14.78,0,0,0-7.43,2A20.88,20.88,0,0,0,10.82,63.92,20.86,20.86,0,0,0,6.44,96.47Z"/><path class="cls-5" d="M543.75,173c-3.69-22.6-25.24-40-51.28-40s-47.59,17.35-51.28,40Z"/><path class="cls-6" d="M109.87,173V153.38c0-25.87-23.21-46.85-51.85-46.85s-51.85,21-51.85,46.85V173Z"/><path class="cls-7" d="M350.2,111.16c-29.67,0-53.72,21-53.72,46.85v15H403.92V158C403.92,132.14,379.87,111.16,350.2,111.16Z"/><g id="_Group_" data-name="&lt;Group&gt;"><g id="_Group_2" data-name="&lt;Group&gt;"><circle id="_Path_2" data-name="&lt;Path&gt;" class="cls-8" cx="388.81" cy="71.38" r="12.95"/></g><g id="_Group_3" data-name="&lt;Group&gt;" class="cls-9"><circle id="_Path_3" data-name="&lt;Path&gt;" class="cls-10" cx="388.81" cy="71.38" r="12.95"/></g><g id="_Group_4" data-name="&lt;Group&gt;"><path id="_Path_4" data-name="&lt;Path&gt;" class="cls-11" d="M394,79.16a2.54,2.54,0,0,1-1.81-.75L381.78,68a2.55,2.55,0,0,1,3.61-3.61L395.84,74.8A2.55,2.55,0,0,1,394,79.16Z"/></g><g id="_Group_5" data-name="&lt;Group&gt;"><path id="_Path_5" data-name="&lt;Path&gt;" class="cls-11" d="M383.58,79.16a2.55,2.55,0,0,1-1.81-4.36l10.45-10.45A2.55,2.55,0,0,1,395.84,68L385.39,78.41A2.54,2.54,0,0,1,383.58,79.16Z"/></g><g id="_Group_6" data-name="&lt;Group&gt;"><circle id="_Path_6" data-name="&lt;Path&gt;" class="cls-8" cx="312.9" cy="71.38" r="12.95"/></g><g id="_Group_7" data-name="&lt;Group&gt;" class="cls-9"><circle id="_Path_7" data-name="&lt;Path&gt;" class="cls-10" cx="312.9" cy="71.38" r="12.95"/></g><g id="_Group_8" data-name="&lt;Group&gt;"><path id="_Path_8" data-name="&lt;Path&gt;" class="cls-11" d="M318.12,79.16a2.54,2.54,0,0,1-1.81-.75L305.86,68a2.55,2.55,0,0,1,3.61-3.61L319.93,74.8a2.55,2.55,0,0,1-1.81,4.36Z"/></g><g id="_Group_9" data-name="&lt;Group&gt;"><path id="_Path_9" data-name="&lt;Path&gt;" class="cls-11" d="M307.67,79.16a2.55,2.55,0,0,1-1.81-4.36l10.45-10.45A2.55,2.55,0,1,1,319.93,68L309.47,78.41A2.54,2.54,0,0,1,307.67,79.16Z"/></g><g id="_Group_10" data-name="&lt;Group&gt;"><path id="_Path_10" data-name="&lt;Path&gt;" class="cls-8" d="M332.58,84.36V113.5h0a18.27,18.27,0,0,0,36.53,0h0V84.36Z"/></g><g id="_Clip_Group_" data-name="&lt;Clip Group&gt;"><g class="cls-12"><g id="_Group_11" data-name="&lt;Group&gt;" class="cls-9"><path id="_Path_11" data-name="&lt;Path&gt;" class="cls-10" d="M374.43,34.07H327.28A14.38,14.38,0,0,0,312.9,48.45V79.05a38,38,0,0,0,38,38h0a38,38,0,0,0,38-38V48.45A14.38,14.38,0,0,0,374.43,34.07Z"/></g></g></g><g id="_Group_12" data-name="&lt;Group&gt;"><path id="_Path_12" data-name="&lt;Path&gt;" class="cls-8" d="M374.43,25.41H327.28A14.38,14.38,0,0,0,312.9,39.79V73.28a38,38,0,0,0,38,38h0a38,38,0,0,0,38-38V39.79A14.38,14.38,0,0,0,374.43,25.41Z"/></g></g><g id="_Group_13" data-name="&lt;Group&gt;"><path id="_Path_13" data-name="&lt;Path&gt;" class="cls-2" d="M393,27.37,403,25S370.37,6.41,342.09,6.41c-13.77,0-23.3,4.3-27.07,11.1-1-1.5-3.2-2.66-7.72-2.66,0,0,6,8.53,6,8.84a16.81,16.81,0,0,0-4.76,11.67V44l.06,0c0,1.72.06,3.27.16,4.68a37.29,37.29,0,0,0,1.13,7.17q.19.69.39,1.29a12,12,0,0,0,2,3.78,3.68,3.68,0,0,0,1,.94V60h0V52.68h0V43.26h0a2.33,2.33,0,0,0,2.4-2.25s-.31-6-.07-6.32c10.92,9.69,49.14,3.42,70.67.19V41a2.32,2.32,0,0,0,2.32,2.24h.08V61.87a3.62,3.62,0,0,0,1-.9,12,12,0,0,0,2-3.93c.12-.35.23-.72.34-1.13a37.14,37.14,0,0,0,1.15-7.26c.07-.93.11-1.91.14-3,0-.53,0-1.08,0-1.65v-8l0,0v-.7a16.53,16.53,0,0,0-.23-2.72c5.37-.9,8.72-1.57,8.72-1.57Z"/></g><g id="_Group_14" data-name="&lt;Group&gt;"><path id="_Path_14" data-name="&lt;Path&gt;" class="cls-2" d="M365.95,89.92a15.8,15.8,0,0,1-30.19,0,2.59,2.59,0,0,1,1.71-3.25,2.2,2.2,0,0,1,.48-.1v0h25.7a2.75,2.75,0,0,1,.59.11A2.59,2.59,0,0,1,365.95,89.92Z"/><g id="_Clip_Group_2" data-name="&lt;Clip Group&gt;"><g class="cls-13"><path id="_Path_15" data-name="&lt;Path&gt;" class="cls-14" d="M335.76,105a15.8,15.8,0,0,1,30.19,0,2.59,2.59,0,0,1-1.71,3.25,2.2,2.2,0,0,1-.48.1v0h-25.7a2.75,2.75,0,0,1-.59-.11A2.59,2.59,0,0,1,335.76,105Z"/></g></g><path id="_Rectangle_" data-name="&lt;Rectangle&gt;" class="cls-15" d="M338.29,86.56h25.12a0,0,0,0,1,0,0v0a4.21,4.21,0,0,1-4.21,4.21H342.51a4.21,4.21,0,0,1-4.21-4.21v0A0,0,0,0,1,338.29,86.56Z"/><line id="_Path_16" data-name="&lt;Path&gt;" class="cls-16" x1="337.75" y1="88.43" x2="363.95" y2="88.43"/><rect id="_Rectangle_2" data-name="&lt;Rectangle&gt;" class="cls-17" x="343.31" y="87.15" width="2.57" height="2.57" rx="0.94" ry="0.94"/><rect id="_Rectangle_3" data-name="&lt;Rectangle&gt;" class="cls-17" x="347.48" y="87.15" width="2.57" height="2.57" rx="0.94" ry="0.94"/><rect id="_Rectangle_4" data-name="&lt;Rectangle&gt;" class="cls-17" x="351.66" y="87.15" width="2.57" height="2.57" rx="0.94" ry="0.94"/><rect id="_Rectangle_5" data-name="&lt;Rectangle&gt;" class="cls-17" x="355.83" y="87.15" width="2.57" height="2.57" rx="0.94" ry="0.94"/></g><g id="_Group_15" data-name="&lt;Group&gt;"><path id="_Path_17" data-name="&lt;Path&gt;" class="cls-2" d="M321.35,48.2,322.77,46a5.77,5.77,0,0,1,5.77-2.61L340.8,45.3a1.15,1.15,0,0,1,1,1.14V48a1.15,1.15,0,0,1-1.1,1.15l-12.55-.62L322.37,50A1.15,1.15,0,0,1,321.35,48.2Z"/><path id="_Path_18" data-name="&lt;Path&gt;" class="cls-2" d="M380.36,48.2,378.94,46a5.77,5.77,0,0,0-5.77-2.61L360.91,45.3a1.15,1.15,0,0,0-1,1.14V48a1.15,1.15,0,0,0,1.1,1.15l11.62-.64L379.33,50A1.15,1.15,0,0,0,380.36,48.2Z"/></g><path id="_Path_19" data-name="&lt;Path&gt;" class="cls-18" d="M354.8,70.86V56.62a3.86,3.86,0,1,0-7.72,0V70.88l-.18,0a3,3,0,0,0,0,5.94,2.94,2.94,0,0,0,.42,0,3.86,3.86,0,0,0,7.23,0l.25,0a3,3,0,1,0,0-5.94Z"/><g id="_Group_16" data-name="&lt;Group&gt;"><g id="_Group_17" data-name="&lt;Group&gt;"><g id="_Group_18" data-name="&lt;Group&gt;"><g id="_Group_19" data-name="&lt;Group&gt;"><circle id="_Path_20" data-name="&lt;Path&gt;" class="cls-19" cx="331.47" cy="58.62" r="5.59"/></g></g><g id="_Group_20" data-name="&lt;Group&gt;"><g id="_Group_21" data-name="&lt;Group&gt;"><circle id="_Path_21" data-name="&lt;Path&gt;" class="cls-19" cx="370.24" cy="58.62" r="5.59"/></g></g></g><g id="_Group_22" data-name="&lt;Group&gt;"><g id="_Group_23" data-name="&lt;Group&gt;"><g id="_Group_24" data-name="&lt;Group&gt;"><circle id="_Path_22" data-name="&lt;Path&gt;" class="cls-20" cx="334.89" cy="55.2" r="2.16"/></g></g></g><g id="_Group_25" data-name="&lt;Group&gt;"><g id="_Group_26" data-name="&lt;Group&gt;"><g id="_Group_27" data-name="&lt;Group&gt;"><circle id="_Path_23" data-name="&lt;Path&gt;" class="cls-20" cx="373.66" cy="55.2" r="2.16"/></g></g></g></g><g id="_Group_28" data-name="&lt;Group&gt;"><path id="_Path_24" data-name="&lt;Path&gt;" class="cls-21" d="M337.61,65.09H319.37a3.46,3.46,0,0,1-3.46-3.46v-7a1.73,1.73,0,0,1,1.73-1.73h24a1.73,1.73,0,0,1,1.73,1.73v4.68A5.77,5.77,0,0,1,337.61,65.09Z"/><path id="_Rectangle_6" data-name="&lt;Rectangle&gt;" class="cls-21" d="M361.14,52.92H383a2.81,2.81,0,0,1,2.81,2.81v3.75a5.62,5.62,0,0,1-5.62,5.62H367.7a9.37,9.37,0,0,1-9.37-9.37v0a2.81,2.81,0,0,1,2.81-2.81Z"/><path id="_Compound_Path_" data-name="&lt;Compound Path&gt;" class="cls-22" d="M384.07,51.18h-24a3.46,3.46,0,0,0-3.43,3,13.57,13.57,0,0,0-11.54.08,3.47,3.47,0,0,0-3.44-3.1h-24a3.47,3.47,0,0,0-3.46,3.46v7a5.2,5.2,0,0,0,5.19,5.19h18.24a7.51,7.51,0,0,0,7.5-7.5V56.24h0a12,12,0,0,1,11.48-.12v3.21a7.51,7.51,0,0,0,7.5,7.5h18.24a5.2,5.2,0,0,0,5.19-5.19v-7A3.47,3.47,0,0,0,384.07,51.18Zm-40.69,8.14a5.77,5.77,0,0,1-5.77,5.77H319.37a3.46,3.46,0,0,1-3.46-3.46v-7a1.73,1.73,0,0,1,1.73-1.73h24a1.73,1.73,0,0,1,1.73,1.73Zm42.42,2.31a3.46,3.46,0,0,1-3.46,3.46H364.1a5.77,5.77,0,0,1-5.77-5.77V54.65a1.73,1.73,0,0,1,1.73-1.73h24a1.73,1.73,0,0,1,1.73,1.73Z"/></g><path class="cls-23" d="M307.63,113.45h84.51a5.62,5.62,0,0,1,5.62,5.62v48.69a0,0,0,0,1,0,0H302a0,0,0,0,1,0,0V119.07A5.62,5.62,0,0,1,307.63,113.45Z" transform="translate(-0.21 0.52) rotate(-0.08)"/><rect class="cls-24" x="306.85" y="118.27" width="86.09" height="44.03" rx="1.19" ry="1.19" transform="translate(-0.21 0.52) rotate(-0.08)"/><path class="cls-25" d="M294.78,166.45h111a3.43,3.43,0,0,1,3.43,3.43V173a0,0,0,0,1,0,0H291.35a0,0,0,0,1,0,0v-3.11A3.43,3.43,0,0,1,294.78,166.45Z" transform="translate(-0.25 0.52) rotate(-0.08)"/><rect class="cls-26" x="335.36" y="129.09" width="29.01" height="2.84"/><rect class="cls-26" x="337.63" y="125.11" width="24.46" height="2.84"/><path class="cls-27" d="M339.64,166.45H361a0,0,0,0,1,0,0V167a2.46,2.46,0,0,1-2.46,2.46H342.1a2.46,2.46,0,0,1-2.46-2.46v-.56A0,0,0,0,1,339.64,166.45Z" transform="translate(-0.25 0.52) rotate(-0.08)"/><rect class="cls-7" x="353.38" y="137.05" width="19.28" height="18.79" rx="3.21" ry="3.21"/><path class="cls-7" d="M338.08,137.05h9.34a1,1,0,0,1,.88,1.52l-4.67,8.09L339,154.76a1,1,0,0,1-1.76,0l-4.67-8.09-4.67-8.09a1,1,0,0,1,.88-1.52Z"/><path class="cls-28" d="M313.2,136.87a5,5,0,0,0-3.15-4.62,5,5,0,0,0-1.83-9.6h-7.82a5,5,0,0,0-1.83,9.6,5,5,0,0,0,0,9.24,5,5,0,0,0,1.83,9.6h7.82a5,5,0,0,0,1.83-9.6A5,5,0,0,0,313.2,136.87Z"/><path class="cls-28" d="M404.19,136.87a5,5,0,0,0-3.15-4.62,5,5,0,0,0-1.83-9.6h-7.82a5,5,0,0,0-1.83,9.6,5,5,0,0,0,0,9.24,5,5,0,0,0,1.83,9.6h7.82a5,5,0,0,0,1.83-9.6A5,5,0,0,0,404.19,136.87Z"/><path class="cls-29" d="M643.89,113.27c-28.63,0-51.85,21-51.85,46.85V173H695.74V160.12C695.74,134.24,672.53,113.27,643.89,113.27Z"/><g id="_Group_29" data-name="&lt;Group&gt;"><g id="_Group_30" data-name="&lt;Group&gt;"><g id="_Group_31" data-name="&lt;Group&gt;"><path id="_Path_25" data-name="&lt;Path&gt;" class="cls-30" d="M622.21,76.46v35.36h0a22.17,22.17,0,0,0,44.33,0h0V76.46Z"/></g><g id="_Group_32" data-name="&lt;Group&gt;" class="cls-31"><path id="_Path_26" data-name="&lt;Path&gt;" class="cls-32" d="M644.39,124.32a7.09,7.09,0,0,1-7.08-7.08,2.07,2.07,0,1,1,4.13,0,2.94,2.94,0,1,0,5.89,0,2.07,2.07,0,1,1,4.13,0A7.09,7.09,0,0,1,644.39,124.32Z"/></g><g id="_Clip_Group_3" data-name="&lt;Clip Group&gt;"><g class="cls-33"><path id="_Path_27" data-name="&lt;Path&gt;" class="cls-34" d="M682,61.79V46.39A23.35,23.35,0,0,0,658.62,23H630.15a23.35,23.35,0,0,0-23.35,23.35V61.78a41.22,41.22,0,1,0,75.17,0Z"/></g></g><g id="_Group_33" data-name="&lt;Group&gt;"><circle id="_Path_28" data-name="&lt;Path&gt;" class="cls-32" cx="683.37" cy="63.36" r="13.11"/></g><path id="_Path_29" data-name="&lt;Path&gt;" class="cls-34" d="M687,63.36l3.46-3.46a2.58,2.58,0,0,0-3.65-3.65l-3.46,3.46-3.46-3.46a2.58,2.58,0,1,0-3.65,3.65l3.46,3.46-3.46,3.46a2.58,2.58,0,1,0,3.65,3.65L683.37,67l3.46,3.46a2.58,2.58,0,0,0,3.65-3.65Z"/><g id="_Group_34" data-name="&lt;Group&gt;"><circle id="_Path_30" data-name="&lt;Path&gt;" class="cls-32" cx="605.4" cy="63.36" r="13.11"/></g><path id="_Path_31" data-name="&lt;Path&gt;" class="cls-34" d="M609.06,63.36l3.46-3.46a2.58,2.58,0,1,0-3.65-3.65l-3.46,3.46-3.46-3.46a2.58,2.58,0,1,0-3.65,3.65l3.46,3.46-3.46,3.46a2.58,2.58,0,1,0,3.65,3.65L605.4,67l3.46,3.46a2.58,2.58,0,0,0,3.65-3.65Z"/><path id="_Path_32" data-name="&lt;Path&gt;" class="cls-30" d="M682,55.95V40.55A23.35,23.35,0,0,0,658.62,17.2H630.15a23.35,23.35,0,0,0-23.35,23.35V55.94a41.22,41.22,0,1,0,75.17,0Z"/></g><g id="_Group_35" data-name="&lt;Group&gt;"><g id="_Group_36" data-name="&lt;Group&gt;"><path id="_Path_33" data-name="&lt;Path&gt;" class="cls-30" d="M622.21,76.46v35.36h0a22.17,22.17,0,0,0,44.33,0h0V76.46Z"/></g><g id="_Clip_Group_4" data-name="&lt;Clip Group&gt;"><g class="cls-33"><path id="_Path_34" data-name="&lt;Path&gt;" class="cls-34" d="M682,61.79V46.39A23.35,23.35,0,0,0,658.62,23H630.15a23.35,23.35,0,0,0-23.35,23.35V61.78a41.22,41.22,0,1,0,75.17,0Z"/></g></g><g id="_Group_37" data-name="&lt;Group&gt;"><circle id="_Path_35" data-name="&lt;Path&gt;" class="cls-32" cx="683.37" cy="63.36" r="13.11"/></g><path id="_Path_36" data-name="&lt;Path&gt;" class="cls-34" d="M687,63.36l3.46-3.46a2.58,2.58,0,0,0-3.65-3.65l-3.46,3.46-3.46-3.46a2.58,2.58,0,1,0-3.65,3.65l3.46,3.46-3.46,3.46a2.58,2.58,0,1,0,3.65,3.65L683.37,67l3.46,3.46a2.58,2.58,0,0,0,3.65-3.65Z"/><g id="_Group_38" data-name="&lt;Group&gt;"><circle id="_Path_37" data-name="&lt;Path&gt;" class="cls-32" cx="605.4" cy="63.36" r="13.11"/></g><path id="_Path_38" data-name="&lt;Path&gt;" class="cls-34" d="M609.06,63.36l3.46-3.46a2.58,2.58,0,1,0-3.65-3.65l-3.46,3.46-3.46-3.46a2.58,2.58,0,1,0-3.65,3.65l3.46,3.46-3.46,3.46a2.58,2.58,0,1,0,3.65,3.65L605.4,67l3.46,3.46a2.58,2.58,0,0,0,3.65-3.65Z"/><path id="_Path_39" data-name="&lt;Path&gt;" class="cls-30" d="M682,55.95V40.55A23.35,23.35,0,0,0,658.62,17.2H630.15a23.35,23.35,0,0,0-23.35,23.35V55.94a41.22,41.22,0,1,0,75.17,0Z"/></g><path id="_Path_40" data-name="&lt;Path&gt;" class="cls-35" d="M696.48,63.36a13.11,13.11,0,0,0-13.11-13.11,13.24,13.24,0,0,0-1.4.08V40.55A23.35,23.35,0,0,0,658.62,17.2H630.15A23.35,23.35,0,0,0,606.8,40.55v9.77a13.24,13.24,0,0,0-1.4-.08,13.11,13.11,0,0,0-2.09,26,41.19,41.19,0,0,0,18.89,31.32v4.21h0a22.17,22.17,0,0,0,44.33,0h0v-4.21A41.19,41.19,0,0,0,685.45,76.3,13.11,13.11,0,0,0,696.48,63.36Z"/></g><path id="_Path_41" data-name="&lt;Path&gt;" class="cls-2" d="M689.89,29.93c0-6.13-2.37-11.15-5.38-11.59a5.65,5.65,0,0,0-4.89-3.44,4.61,4.61,0,0,0-1.63.31,8,8,0,0,0-5.61-4.82,9.63,9.63,0,0,0-1.66-.3A21.14,21.14,0,0,0,661.9,5.8a20.77,20.77,0,0,0-10.06-.28c-1-1.69-2.47-2.74-4-2.74A4.12,4.12,0,0,0,645,3.94c-4.4-2.66-10.93-3.79-18-2.68C616.23,2.94,607.71,9.19,606.19,16l-.32,0c-3.21,0-5.82,6.82-5.82,15.23,0,6.22,1.42,11.57,3.47,13.93V55.84a10.06,10.06,0,0,0,3.5,7.38v-11l.37-.55c.61-.91,1.17-1.86,1.69-2.84a38.51,38.51,0,0,0,4.45-18.13V27.77c5-.43,13.61-1.65,18.22-5a54.84,54.84,0,0,0,9.2,3.16c7.41,1.91,18.34,3.57,34.2,3.8v.93a38.52,38.52,0,0,0,4.45,18.13c.52,1,1.08,1.93,1.69,2.84l.37.55v11a10.06,10.06,0,0,0,3.5-7.38V49.13h0c2-1.81,3.45-5.88,3.45-10.62,0-.42,0-.83,0-1.23A19.81,19.81,0,0,0,689.89,29.93Z"/><g id="_Group_39" data-name="&lt;Group&gt;"><path id="_Path_42" data-name="&lt;Path&gt;" class="cls-19" d="M656.4,88.29a12.57,12.57,0,0,1-24,0,2.06,2.06,0,0,1,1.36-2.59,1.75,1.75,0,0,1,.38-.08v0h20.45a2.19,2.19,0,0,1,.47.09A2.06,2.06,0,0,1,656.4,88.29Z"/><g id="_Clip_Group_5" data-name="&lt;Clip Group&gt;"><path id="_Clipping_Path_11" data-name="&lt;Clipping Path&gt;" class="cls-2" d="M656.4,88.29a12.57,12.57,0,0,1-24,0,2.06,2.06,0,0,1,1.36-2.59,1.75,1.75,0,0,1,.38-.08v0h20.45a2.19,2.19,0,0,1,.47.09A2.06,2.06,0,0,1,656.4,88.29Z"/><g class="cls-36"><path id="_Path_43" data-name="&lt;Path&gt;" class="cls-14" d="M632.38,100.3a12.57,12.57,0,0,1,24,0,2.06,2.06,0,0,1-1.36,2.59,1.75,1.75,0,0,1-.38.08v0H634.2a2.19,2.19,0,0,1-.47-.09A2.06,2.06,0,0,1,632.38,100.3Z"/></g></g><path id="_Rectangle_7" data-name="&lt;Rectangle&gt;" class="cls-15" d="M634.39,85.61h20a0,0,0,0,1,0,0v0A3.35,3.35,0,0,1,651,89H637.75a3.35,3.35,0,0,1-3.35-3.35v0A0,0,0,0,1,634.39,85.61Z"/></g><g id="_Group_40" data-name="&lt;Group&gt;"><g id="_Group_41" data-name="&lt;Group&gt;"><g id="_Group_42" data-name="&lt;Group&gt;"><g id="_Group_43" data-name="&lt;Group&gt;"><circle id="_Path_44" data-name="&lt;Path&gt;" class="cls-2" cx="624.78" cy="56.67" r="5.66"/></g></g><g id="_Group_44" data-name="&lt;Group&gt;"><g id="_Group_45" data-name="&lt;Group&gt;"><circle id="_Path_45" data-name="&lt;Path&gt;" class="cls-2" cx="664" cy="56.67" r="5.66"/></g></g></g><g id="_Group_46" data-name="&lt;Group&gt;"><g id="_Group_47" data-name="&lt;Group&gt;"><g id="_Group_48" data-name="&lt;Group&gt;"><circle id="_Path_46" data-name="&lt;Path&gt;" class="cls-20" cx="628.24" cy="53.21" r="2.19"/></g></g></g><g id="_Group_49" data-name="&lt;Group&gt;"><g id="_Group_50" data-name="&lt;Group&gt;"><g id="_Group_51" data-name="&lt;Group&gt;"><circle id="_Path_47" data-name="&lt;Path&gt;" class="cls-20" cx="667.47" cy="53.21" r="2.19"/></g></g></g></g><g id="_Group_52" data-name="&lt;Group&gt;"><g id="_Group_53" data-name="&lt;Group&gt;"><g id="_Group_54" data-name="&lt;Group&gt;"><path id="_Path_48" data-name="&lt;Path&gt;" class="cls-2" d="M669.09,47.65A1.46,1.46,0,0,1,667.9,47a7.66,7.66,0,0,0-12.48,0,1.46,1.46,0,1,1-2.37-1.7,10.58,10.58,0,0,1,17.22,0,1.46,1.46,0,0,1-1.18,2.31Z"/></g></g><g id="_Group_55" data-name="&lt;Group&gt;"><g id="_Group_56" data-name="&lt;Group&gt;"><path id="_Path_49" data-name="&lt;Path&gt;" class="cls-2" d="M634.54,47.65a1.46,1.46,0,0,1-1.19-.61,7.66,7.66,0,0,0-12.48,0,1.46,1.46,0,1,1-2.37-1.7,10.58,10.58,0,0,1,17.22,0,1.46,1.46,0,0,1-1.18,2.31Z"/></g></g></g><path id="_Path_50" data-name="&lt;Path&gt;" class="cls-37" d="M651.07,66.74a3.89,3.89,0,0,0-.87.1l-.85-10.67a4.88,4.88,0,0,0-4.86-4.49h0a4.88,4.88,0,0,0-4.86,4.49l-.86,10.72A3.89,3.89,0,1,0,639,74.3a6.08,6.08,0,0,0,5.48,3.45h0a6.08,6.08,0,0,0,5.45-3.4,3.89,3.89,0,1,0,1.13-7.61Z"/><rect class="cls-25" x="582.98" y="165.79" width="122.55" height="7.28" rx="3.64" ry="3.64"/><rect class="cls-23" x="590.02" y="106.81" width="107.73" height="66.26" rx="6.8" ry="6.8"/><path class="cls-38" d="M648.37,157.58a98.91,98.91,0,0,1-11.76,2c-4,.39-6.32.25-6.74-1.59-.33-1.44.89-2.44,3.1-3.44-.1-.33-.2-.66-.27-1a19.37,19.37,0,0,1-.44-3.7v-.11a4.18,4.18,0,0,1-4.62-2.45,8.1,8.1,0,0,1-.59-4.43,4.45,4.45,0,0,1,1-3.73,4.65,4.65,0,0,1,1.78-2.12c.31-.44.64-.89,1-1.38l.42-.54.12-.39c-1.87-2-1.8-3.6-1.36-4.63a3.52,3.52,0,0,1,2.65-2,7.23,7.23,0,0,1,1.42-.17h0a6.91,6.91,0,0,1,1.48-1.3c.42-.94,1.63-1.65,3.61-2.11l.3-.06a8.66,8.66,0,0,1,1.17-.36l.31-.07a5.62,5.62,0,0,1,1.38-.51,3.85,3.85,0,0,1,2.91.32,2.42,2.42,0,0,1,.62.57,14.24,14.24,0,0,1,1.67.64,8.15,8.15,0,0,1,2-.81,3.63,3.63,0,0,1,3.14.54c.92.7,1.77,2.1.93,4.87l.3.32.58.29c.55.28,1.06.54,1.52.8a4.65,4.65,0,0,1,2.52,1.14,4.45,4.45,0,0,1,2.49,2.94,8.1,8.1,0,0,1,1.4,4.25,4.2,4.2,0,0,1-2.93,4.17,20.82,20.82,0,0,1,1.26,3.62c.07.33.14.67.18,1,2.42-.06,4,.31,4.28,1.75.42,1.84-1.65,3-5.38,4.36A98.91,98.91,0,0,1,648.37,157.58Z"/><path class="cls-39" d="M651.84,130c.48-1.22,1-3.14-.09-4s-2.92,0-3.93.66l-.23.14a12.73,12.73,0,0,0-2.82-1.1c-.27-1.32-2.66-.68-3.26-.21l-.53.1a7.31,7.31,0,0,0-1.1.35c-.58.08-3.38.8-2.88,1.66a4.66,4.66,0,0,0-1.76,1.33l-.48.55c-1.2-.06-2.84.07-3.34,1.23s.74,2.7,1.7,3.56l-.49,1.57-.59.77c-.41.52-.8,1.06-1.18,1.61a3,3,0,0,0-1.46,1.69,2.83,2.83,0,0,0-.75,2.91,6.29,6.29,0,0,0,.38,3.83,2.6,2.6,0,0,0,3,1.56,2.19,2.19,0,0,0,.91-.54l.16.38a9,9,0,0,0,.66,1.23l0,.55a18,18,0,0,0,.4,3.4,10.57,10.57,0,0,0,.77,2.19c-2.34.92-3.71,1.72-3.59,2.24.26,1.14,7.71.41,16.63-1.63s15.94-4.62,15.68-5.76c-.12-.51-1.69-.65-4.2-.46a10.6,10.6,0,0,0-.26-2.31,19.73,19.73,0,0,0-1.2-3.44l-.21-.49c0-.15,0-.29,0-.44l0-1.13a2.19,2.19,0,0,0,1,.08,2.6,2.6,0,0,0,2-2.72,6.3,6.3,0,0,0-1.32-3.61,2.83,2.83,0,0,0-1.94-2.29,3,3,0,0,0-2-.88c-.58-.33-1.16-.64-1.76-.93l-.84-.42Zm5.59,9.71h0Z"/><path class="cls-40" d="M641.11,126.21a6.44,6.44,0,0,1,.65-.11,2.38,2.38,0,0,1,2.4-.41c-.81-.09-1.12.35-.72.4a11.63,11.63,0,0,1,4.88,1.87h0a19.89,19.89,0,0,1,2.06,1.75,12.87,12.87,0,0,0-2.26-2.51c2.59-1.61,4.86-1.38,3,3a20.2,20.2,0,0,1,5.71,9.7,14.63,14.63,0,0,1,.39,3.28,28.62,28.62,0,0,1-.35,3.22l.59-2.07v0a18.39,18.39,0,0,1,1.17,3.33,8.87,8.87,0,0,1,.2,2.93c-.09.64-.27.84-.93,1.14a13.62,13.62,0,0,1-2.59.84,3.67,3.67,0,0,1-1.79,0,2.77,2.77,0,0,1-.61-.23,19.28,19.28,0,0,0,2.74-3,16.75,16.75,0,0,1-7.08,4.63l-.38.11h0a15.64,15.64,0,0,1-10.18-.7,19.35,19.35,0,0,0,3.9,1.43,2.79,2.79,0,0,1-.44.47,3.67,3.67,0,0,1-1.59.81,13.63,13.63,0,0,1-2.7.36c-.72,0-1-.08-1.33-.62a8.87,8.87,0,0,1-1.1-2.73,18.21,18.21,0,0,1-.39-3.28l1.38,1.37a30,30,0,0,1-2.11-3.37,15.12,15.12,0,0,1-.79-2.48,20.2,20.2,0,0,1,.93-11.24c-3-2.53-2.46-4.34,1.41-4a12.79,12.79,0,0,0-1,3.24,19.77,19.77,0,0,1,1.1-2.47,17.52,17.52,0,0,1,1.08-1.53c-.07-.26-.34-.31-.77,0a3.77,3.77,0,0,1,2.07-1.34l.47-.39c0-.09-.11-.34-.61-.12a4.35,4.35,0,0,1,2.41-.95,6.73,6.73,0,0,1,1.08-.35Z"/><path class="cls-41" d="M657.71,141.36c1.14.6,2.56-.25,2.56-2a5.77,5.77,0,0,0-2.16-4.27.87.87,0,0,1,.75.08,3.79,3.79,0,0,0-2.45-1.38c.12-.14.39-.13.71-.06a2.62,2.62,0,0,0-1.7-.55h0c-.5-.29-1-.57-1.54-.84a19.8,19.8,0,0,1,3.55,7.37q.18.79.28,1.6Z"/><path class="cls-40" d="M632.75,147.07c-.76,1-2.42.88-3.15-.66a5.78,5.78,0,0,1,.09-4.78c-.17,0-.48.18-.64.4a3.79,3.79,0,0,1,1.6-2.31c-.17-.07-.41.05-.67.26a2.63,2.63,0,0,1,1.29-1.24h0c.32-.48.67-1,1-1.42a19.8,19.8,0,0,0,0,8.18c.12.53.26,1.06.44,1.57Z"/><path class="cls-41" d="M655.69,149.36a1.92,1.92,0,0,0,.79-1.32,7.93,7.93,0,0,1,.38,4.11,11.8,11.8,0,0,1-1.52.43,3.68,3.68,0,0,1-1.79,0,2.77,2.77,0,0,1-.6-.23,19.31,19.31,0,0,0,2.74-3Zm-15.18-23c-7.49,4.71-9.47,18.11-2.46,25,2.29,2.25,5.77,3.23,10.18,2.71a15.64,15.64,0,0,1-10.18-.7,19.32,19.32,0,0,0,3.9,1.43,2.79,2.79,0,0,1-.44.47,3.68,3.68,0,0,1-1.59.81,13.62,13.62,0,0,1-2.7.36c-.72,0-1-.08-1.33-.62a8.89,8.89,0,0,1-1.09-2.73,18.18,18.18,0,0,1-.39-3.28l1.38,1.37a30,30,0,0,1-2.1-3.37,15.08,15.08,0,0,1-.79-2.48,20.11,20.11,0,0,1,.78-10.8h0v0h0l0-.07h.11c-1.82-1.53-2.34-2.8-1.61-3.48-.3,1,1.2,2.26,2.1,2.48,0,.09,0,.18,0,.27l0,0,0,0,0,0,0,0,0,0,0,0h0a18.12,18.12,0,0,1,1-2.23,15.88,15.88,0,0,1,1.08-1.53c-.07-.26-.34-.31-.77,0a3.77,3.77,0,0,1,2.07-1.34l.47-.39c0-.09-.11-.34-.61-.12a4.36,4.36,0,0,1,2.41-.95l.48-.18Zm8.32,1.45h0a2.71,2.71,0,0,1,1.83-1.55,5.09,5.09,0,0,0-2.52.92,8.39,8.39,0,0,1,.69.63Z"/><path class="cls-42" d="M635.65,137.9a2.07,2.07,0,0,0-.52,1.43c.14-.3.55-.37.82-.38a6.92,6.92,0,0,0-.86,3,1.46,1.46,0,0,1,1.05-.81,3.87,3.87,0,0,0-.55,3,1.23,1.23,0,0,1,.61-.71c-.7,1.51.08,3.45,1.43,5.12a1.4,1.4,0,0,1,.41-1.67,4.86,4.86,0,0,0,1,3.1,9.76,9.76,0,0,0,3.25,2,8.19,8.19,0,0,0,9-2.07,9.77,9.77,0,0,0,2-3.24,4.86,4.86,0,0,0-.49-3.21,1.4,1.4,0,0,1,1.09,1.33c.48-2.09.34-4.17-.94-5.23a1.23,1.23,0,0,1,.86.37,3.87,3.87,0,0,0-1.81-2.5,1.45,1.45,0,0,1,1.3.27,6.91,6.91,0,0,0-2.07-2.32,1.49,1.49,0,0,1,1.14.18c-.26-.76-.78-1.31-1.33-1.25-.35-.45.29-1.36,0-2a.86.86,0,0,1-.64.85,10,10,0,0,1,.1,1.09h0c.13,2.62-1.19,4-4.6,5-.52.16-1.1.31-1.73.46-3.58.82-7.2,1.44-8.55-3.19a.78.78,0,0,1-.9-.46c.11.64,1,1.23.86,1.76Z"/><path class="cls-39" d="M650.46,133.24c.51,3.57-.74,5.29-6.22,6.54a20,20,0,0,1-3.56.55h-.29c-2.61,0-3.93-1.07-4.7-3.74a.8.8,0,0,1-.94-.54,1.06,1.06,0,0,0,1.67-.31.84.84,0,0,1-.5.8,4.31,4.31,0,0,0,2.79,3,1.49,1.49,0,0,1,0-.32,2,2,0,0,1,.38-.8,1.24,1.24,0,0,1,.73-.47.8.8,0,0,1,.76.33,2,2,0,0,1,.33.66,3.86,3.86,0,0,1,.16.76v0a20.32,20.32,0,0,0,3-.49c4.63-1.06,6.52-2.54,6.21-5.95a.81.81,0,0,1-.85-.56,1,1,0,0,0,1.67-.31.86.86,0,0,1-.64.85Z"/><path class="cls-43" d="M639.19,139.72a.66.66,0,0,1,0-.47,1.45,1.45,0,0,1,.3-.6.83.83,0,0,1,.46-.3.38.38,0,0,1,.36.16,1.46,1.46,0,0,1,.25.49,3.49,3.49,0,0,1,.14.64c0,.43-1.36.21-1.46.07Z"/><path class="cls-40" d="M655.74,135.29c1.72,0,4,3.82,3.91,5.75a2.27,2.27,0,0,0,.62-1.65,5.77,5.77,0,0,0-2.16-4.27.87.87,0,0,1,.75.08,3.79,3.79,0,0,0-2.45-1.38c.12-.14.39-.13.71-.06a2.62,2.62,0,0,0-1.7-.55h0c-.5-.29-1-.57-1.54-.84a21.75,21.75,0,0,1,1.86,2.92Z"/><path class="cls-41" d="M631.89,140.75c-1.53.79-1.92,5.17-1,6.88a2.27,2.27,0,0,1-1.27-1.21,5.78,5.78,0,0,1,.09-4.78c-.17,0-.48.18-.64.4a3.79,3.79,0,0,1,1.6-2.31c-.17-.07-.41.05-.67.26a2.63,2.63,0,0,1,1.29-1.24h0c.32-.48.67-1,1-1.42a21.69,21.69,0,0,0-.41,3.44Z"/><path class="cls-44" d="M642.51,132.27a3.35,3.35,0,0,1,2.35-3.32c1.77-.41,3.46,1.11,3.88,3.12a3.12,3.12,0,0,1-2.37,4,3.09,3.09,0,0,0-5.69,1.3,3.12,3.12,0,0,1-3.86-2.54c-.49-2,.36-4.09,2.14-4.5a3.35,3.35,0,0,1,3.56,2Z"/><path class="cls-38" d="M639.1,131a3.14,3.14,0,0,1,3.47,2.62,2.54,2.54,0,0,1-2,3.32,2.65,2.65,0,0,1-3.35-2.09A3,3,0,0,1,639.1,131Zm5.94-1.36a3.14,3.14,0,0,0-2,3.87,2.54,2.54,0,0,0,3.24,2.12,2.65,2.65,0,0,0,2.1-3.34,3,3,0,0,0-3.36-2.64Z"/><path class="cls-45" d="M639.66,131.89a2,2,0,0,1,2.18,1.65,1.9,1.9,0,0,1-1.18,2.42,2,2,0,0,1-2.18-1.65,2.35,2.35,0,0,1,0-1.31v0a.76.76,0,0,0,.85.64.73.73,0,0,0,.46-.94.82.82,0,0,0-.66-.65,1.43,1.43,0,0,1,.49-.21Z"/><path class="cls-39" d="M639.82,132.54a1.34,1.34,0,0,1,1.48,1.12,1.29,1.29,0,0,1-.8,1.64,1.34,1.34,0,0,1-1.48-1.12,1.66,1.66,0,0,1,0-.55.6.6,0,0,0,.4.05.73.73,0,0,0,.46-.94,1,1,0,0,0-.07-.19l.06,0Z"/><path class="cls-45" d="M644.85,130.7a2,2,0,0,1,2.18,1.65,1.9,1.9,0,0,1-1.18,2.42,2,2,0,0,1-2.18-1.65,2.36,2.36,0,0,1,0-1.31v0a.76.76,0,0,0,.84.64.73.73,0,0,0,.46-.94.82.82,0,0,0-.66-.65,1.43,1.43,0,0,1,.49-.21Z"/><path class="cls-39" d="M645,131.36a1.34,1.34,0,0,1,1.48,1.12,1.29,1.29,0,0,1-.8,1.64,1.34,1.34,0,0,1-1.48-1.12,1.67,1.67,0,0,1,0-.55.6.6,0,0,0,.4.05.73.73,0,0,0,.46-.94,1,1,0,0,0-.07-.19l.06,0Z"/><path id="_Path_51" data-name="&lt;Path&gt;" class="cls-46" d="M545.16,118.13h-8.93a11,11,0,0,0,6.22-9.9,1.65,1.65,0,0,0-1.65-1.65h-7.89v-46A16.5,16.5,0,0,0,516.42,44h-49A16.5,16.5,0,0,0,451,60.54v46h-8.33a1.65,1.65,0,0,0-1.65,1.65,11,11,0,0,0,6.22,9.9H439.4a1.1,1.1,0,0,0-1.1,1.18,14.3,14.3,0,0,0,14.25,13.12H532a14.3,14.3,0,0,0,14.25-13.12A1.1,1.1,0,0,0,545.16,118.13Z"/><g id="_Group_57" data-name="&lt;Group&gt;"><g id="_Group_58" data-name="&lt;Group&gt;"><g id="_Group_59" data-name="&lt;Group&gt;"><g id="_Group_60" data-name="&lt;Group&gt;"><circle id="_Path_52" data-name="&lt;Path&gt;" class="cls-47" cx="528.46" cy="91.65" r="12.35"/></g><g id="_Group_61" data-name="&lt;Group&gt;" class="cls-9"><circle id="_Path_53" data-name="&lt;Path&gt;" class="cls-10" cx="528.46" cy="91.65" r="12.35"/></g><g id="_Group_62" data-name="&lt;Group&gt;"><path id="_Path_54" data-name="&lt;Path&gt;" class="cls-11" d="M533.45,99.06a2.43,2.43,0,0,1-1.72-.71l-10-10a2.43,2.43,0,0,1,3.44-3.44l10,10a2.43,2.43,0,0,1-1.72,4.15Z"/></g><g id="_Group_63" data-name="&lt;Group&gt;"><path id="_Path_55" data-name="&lt;Path&gt;" class="cls-11" d="M523.48,99.06a2.43,2.43,0,0,1-1.72-4.15l10-10a2.43,2.43,0,0,1,3.44,3.44l-10,10A2.43,2.43,0,0,1,523.48,99.06Z"/></g><g id="_Group_64" data-name="&lt;Group&gt;"><circle id="_Path_56" data-name="&lt;Path&gt;" class="cls-47" cx="456.1" cy="91.65" r="12.35"/></g><g id="_Group_65" data-name="&lt;Group&gt;" class="cls-9"><circle id="_Path_57" data-name="&lt;Path&gt;" class="cls-10" cx="456.1" cy="91.65" r="12.35"/></g><g id="_Group_66" data-name="&lt;Group&gt;"><path id="_Path_58" data-name="&lt;Path&gt;" class="cls-11" d="M461.08,99.06a2.43,2.43,0,0,1-1.72-.71l-10-10a2.43,2.43,0,0,1,3.44-3.44l10,10a2.43,2.43,0,0,1-1.72,4.15Z"/></g><g id="_Group_67" data-name="&lt;Group&gt;"><path id="_Path_59" data-name="&lt;Path&gt;" class="cls-11" d="M451.11,99.06a2.43,2.43,0,0,1-1.72-4.15l10-10a2.43,2.43,0,0,1,3.44,3.44l-10,10A2.43,2.43,0,0,1,451.11,99.06Z"/></g><g id="_Group_68" data-name="&lt;Group&gt;"><path id="_Path_60" data-name="&lt;Path&gt;" class="cls-47" d="M474.86,104V131.8h0a17.41,17.41,0,0,0,34.82,0h0V104Z"/></g><g id="_Clip_Group_6" data-name="&lt;Clip Group&gt;"><g class="cls-48"><g id="_Group_69" data-name="&lt;Group&gt;" class="cls-9"><path id="_Path_61" data-name="&lt;Path&gt;" class="cls-10" d="M514.76,56.08h-45A13.71,13.71,0,0,0,456.1,69.78V99a36.18,36.18,0,0,0,36.18,36.18h0A36.18,36.18,0,0,0,528.46,99V69.78A13.71,13.71,0,0,0,514.76,56.08Z"/></g></g></g><g id="_Group_70" data-name="&lt;Group&gt;"><path id="_Path_62" data-name="&lt;Path&gt;" class="cls-47" d="M514.76,47.82h-45A13.71,13.71,0,0,0,456.1,61.53V93.46a36.18,36.18,0,0,0,36.18,36.18h0a36.18,36.18,0,0,0,36.18-36.18V61.53A13.71,13.71,0,0,0,514.76,47.82Z"/></g></g></g><path id="_Path_63" data-name="&lt;Path&gt;" class="cls-49" d="M528.46,79.3V61.53a13.71,13.71,0,0,0-13.71-13.71h-45A13.71,13.71,0,0,0,456.1,61.53V79.3a12.35,12.35,0,1,0,1.54,24.6,36.27,36.27,0,0,0,17.23,21.28v6.62h0a17.41,17.41,0,0,0,34.82,0h0v-6.62a36.27,36.27,0,0,0,17.23-21.28,12.35,12.35,0,1,0,1.54-24.6Z"/><path id="_Path_64" data-name="&lt;Path&gt;" class="cls-46" d="M492.28,20.37a46.77,46.77,0,0,0-44.23,61.91,12.36,12.36,0,0,1,2.7-1.77v4.82a5.35,5.35,0,0,0,5.35,5.35c0-1.48,0-22.55,0-29.15A13.71,13.71,0,0,1,469.8,47.83h45a13.71,13.71,0,0,1,13.71,13.71c0,8.85,0,29.15,0,29.15a5.35,5.35,0,0,0,5.35-5.35V80.51a12.37,12.37,0,0,1,2.69,1.77A46.77,46.77,0,0,0,492.28,20.37Z"/></g><path id="_Path_65" data-name="&lt;Path&gt;" class="cls-50" d="M496,89.4V81.32a3.68,3.68,0,0,0-7.36,0v8.1l-.17,0a2.83,2.83,0,1,0,.4,5.62,3.68,3.68,0,0,0,6.89,0l.24,0a2.83,2.83,0,0,0,0-5.66Z"/><path id="_Path_66" data-name="&lt;Path&gt;" class="cls-46" d="M504.78,33.35h-25a27.5,27.5,0,0,0-27.5,27.5v4.08a2.2,2.2,0,0,0,2.2,2.2h17.08a27.51,27.51,0,0,0,26-18.58A22,22,0,0,0,519.3,67.14h10.78a2.2,2.2,0,0,0,2.2-2.2V60.85A27.5,27.5,0,0,0,504.78,33.35Z"/><g id="_Group_71" data-name="&lt;Group&gt;"><path id="_Path_67" data-name="&lt;Path&gt;" class="cls-46" d="M464.69,73.85c-1.08-.76.91-3.76,3.72-4.81,6.17-2.6,15.83-.93,17.41.37a.73.73,0,0,1-.25,1.26c-2.36.71-15.16-3.64-19.88,3A.72.72,0,0,1,464.69,73.85Z"/><path id="_Path_68" data-name="&lt;Path&gt;" class="cls-46" d="M518.88,73.67c-4.69-6.6-17.75-2.37-19.87-3-.64-.19-2.44-2.22,7.6-2.94,6.38-.46,12.57,1.54,13.52,5.12C520.42,74,519.28,74.24,518.88,73.67Z"/></g><g id="_Group_72" data-name="&lt;Group&gt;"><g id="_Group_73" data-name="&lt;Group&gt;"><path id="_Path_69" data-name="&lt;Path&gt;" class="cls-20" d="M473.8,74a9,9,0,0,0-8.32,12.58h8.32A3.54,3.54,0,1,1,477.34,83a3.54,3.54,0,0,1-3.54,3.54h8.32A9,9,0,0,0,473.8,74Z"/><path id="_Path_70" data-name="&lt;Path&gt;" class="cls-20" d="M507.22,83a3.54,3.54,0,1,1,3.54,3.54h8.32a9,9,0,1,0-16.64,0h8.32A3.54,3.54,0,0,1,507.22,83Z"/><circle id="_Path_71" data-name="&lt;Path&gt;" class="cls-51" cx="473.8" cy="83.01" r="3.54"/><circle id="_Path_72" data-name="&lt;Path&gt;" class="cls-51" cx="510.76" cy="83.01" r="3.54"/></g><g id="_Group_74" data-name="&lt;Group&gt;"><path id="_Path_73" data-name="&lt;Path&gt;" class="cls-50" d="M483.53,87.92H464.07a1.38,1.38,0,1,1,0-2.75h19.45a1.38,1.38,0,1,1,0,2.75Z"/></g><g id="_Group_75" data-name="&lt;Group&gt;"><g id="_Group_76" data-name="&lt;Group&gt;"><g id="_Group_77" data-name="&lt;Group&gt;"><g id="_Group_78" data-name="&lt;Group&gt;"><circle id="_Path_74" data-name="&lt;Path&gt;" class="cls-15" cx="475.86" cy="80.29" r="2.06"/></g></g></g><g id="_Group_79" data-name="&lt;Group&gt;"><g id="_Group_80" data-name="&lt;Group&gt;"><g id="_Group_81" data-name="&lt;Group&gt;"><circle id="_Path_75" data-name="&lt;Path&gt;" class="cls-15" cx="512.82" cy="80.29" r="2.06"/></g></g></g></g><g id="_Group_82" data-name="&lt;Group&gt;"><path id="_Path_76" data-name="&lt;Path&gt;" class="cls-50" d="M520.48,87.92H501a1.38,1.38,0,1,1,0-2.75h19.45a1.38,1.38,0,1,1,0,2.75Z"/></g></g><path id="_Path_77" data-name="&lt;Path&gt;" class="cls-52" d="M504.24,108.47a11.85,11.85,0,0,1-22.63,0,1.94,1.94,0,0,1,1.28-2.44,1.65,1.65,0,0,1,.36-.07v0h19.27a2.06,2.06,0,0,1,.44.08A1.94,1.94,0,0,1,504.24,108.47Z"/><g id="_Clip_Group_7" data-name="&lt;Clip Group&gt;"><g class="cls-53"><path id="_Path_78" data-name="&lt;Path&gt;" class="cls-54" d="M481.6,119.78a11.85,11.85,0,0,1,22.63,0,1.94,1.94,0,0,1-1.28,2.44,1.65,1.65,0,0,1-.36.07v0H483.33a2.06,2.06,0,0,1-.44-.08A1.94,1.94,0,0,1,481.6,119.78Z"/></g></g><path id="_Rectangle_8" data-name="&lt;Rectangle&gt;" class="cls-15" d="M483.5,105.95h18.83a0,0,0,0,1,0,0v0a3.16,3.16,0,0,1-3.16,3.16H486.66a3.16,3.16,0,0,1-3.16-3.16v0A0,0,0,0,1,483.5,105.95Z"/><g id="_Group_83" data-name="&lt;Group&gt;"><g id="_Group_84" data-name="&lt;Group&gt;"><g id="_Group_85" data-name="&lt;Group&gt;"><g id="_Group_86" data-name="&lt;Group&gt;"><circle id="_Path_79" data-name="&lt;Path&gt;" class="cls-55" cx="90.34" cy="73.43" r="11.1"/></g><g id="_Group_87" data-name="&lt;Group&gt;" class="cls-9"><circle id="_Path_80" data-name="&lt;Path&gt;" class="cls-10" cx="90.34" cy="73.43" r="11.1"/></g><g id="_Group_88" data-name="&lt;Group&gt;"><path id="_Path_81" data-name="&lt;Path&gt;" class="cls-56" d="M94.82,80.1a2.18,2.18,0,0,1-1.55-.64l-9-9a2.19,2.19,0,0,1,3.09-3.09l9,9a2.19,2.19,0,0,1-1.55,3.73Z"/></g><g id="_Group_89" data-name="&lt;Group&gt;"><path id="_Path_82" data-name="&lt;Path&gt;" class="cls-56" d="M85.86,80.1a2.19,2.19,0,0,1-1.55-3.73l9-9a2.19,2.19,0,0,1,3.09,3.09l-9,9A2.18,2.18,0,0,1,85.86,80.1Z"/></g><g id="_Group_90" data-name="&lt;Group&gt;"><circle id="_Path_83" data-name="&lt;Path&gt;" class="cls-55" cx="25.29" cy="73.43" r="11.1"/></g><g id="_Group_91" data-name="&lt;Group&gt;" class="cls-9"><circle id="_Path_84" data-name="&lt;Path&gt;" class="cls-10" cx="25.29" cy="73.43" r="11.1"/></g><g id="_Group_92" data-name="&lt;Group&gt;"><path id="_Path_85" data-name="&lt;Path&gt;" class="cls-56" d="M29.77,80.1a2.18,2.18,0,0,1-1.55-.64l-9-9a2.19,2.19,0,0,1,3.09-3.09l9,9a2.19,2.19,0,0,1-1.55,3.73Z"/></g><g id="_Group_93" data-name="&lt;Group&gt;"><path id="_Path_86" data-name="&lt;Path&gt;" class="cls-56" d="M20.81,80.1a2.19,2.19,0,0,1-1.55-3.73l9-9a2.19,2.19,0,1,1,3.09,3.09l-9,9A2.18,2.18,0,0,1,20.81,80.1Z"/></g><g id="_Group_94" data-name="&lt;Group&gt;"><path id="_Path_87" data-name="&lt;Path&gt;" class="cls-55" d="M42.16,84.55v25h0a15.65,15.65,0,0,0,31.3,0h0v-25Z"/></g><g id="_Clip_Group_8" data-name="&lt;Clip Group&gt;"><g class="cls-57"><g id="_Group_95" data-name="&lt;Group&gt;" class="cls-9"><path id="_Path_88" data-name="&lt;Path&gt;" class="cls-10" d="M78,41.45H37.61A12.32,12.32,0,0,0,25.29,53.78V80a32.53,32.53,0,0,0,32.53,32.53h0A32.53,32.53,0,0,0,90.34,80V53.78A12.32,12.32,0,0,0,78,41.45Z"/></g></g></g><g id="_Group_96" data-name="&lt;Group&gt;"><path id="_Path_89" data-name="&lt;Path&gt;" class="cls-55" d="M78,34H37.61A12.32,12.32,0,0,0,25.29,46.36v28.7a32.53,32.53,0,0,0,32.53,32.53h0A32.53,32.53,0,0,0,90.34,75.06V46.36A12.32,12.32,0,0,0,78,34Z"/></g></g></g><path id="_Path_90" data-name="&lt;Path&gt;" class="cls-4" d="M57.82,9.36A42,42,0,0,0,18.06,65a11.11,11.11,0,0,1,2.42-1.59v4.34a4.81,4.81,0,0,0,4.81,4.81c0-1.33,0-20.27,0-26.2a12.29,12.29,0,0,1,.7-4.1c6.15,5.23,17.93,12.06,37.9,12.59a2.47,2.47,0,0,0,2.53-2.47V44.74s6,9.42,23.92,10.09c0,8.27,0,17.72,0,17.72a4.81,4.81,0,0,0,4.81-4.81V63.42A11.12,11.12,0,0,1,97.57,65,42,42,0,0,0,57.82,9.36Z"/><g id="_Group_97" data-name="&lt;Group&gt;"><path id="_Path_91" data-name="&lt;Path&gt;" class="cls-4" d="M47.71,58.42A32.26,32.26,0,0,0,38.51,57c-3.13,0-4,.76-6.36,1.82-2,.89-2-4.35,6.48-4.35,4.9,0,14.21,2.51,12.52,4.26C50.58,59.32,48.52,58.65,47.71,58.42Z"/><path id="_Path_92" data-name="&lt;Path&gt;" class="cls-4" d="M67.93,58.42A32.26,32.26,0,0,1,77.12,57c3.13,0,4,.76,6.36,1.82,2,.89,2-4.35-6.48-4.35-4.9,0-14.21,2.51-12.52,4.26C65.06,59.32,67.12,58.65,67.93,58.42Z"/></g><g id="_Group_98" data-name="&lt;Group&gt;"><path id="_Path_93" data-name="&lt;Path&gt;" class="cls-58" d="M57.81,94.93a10.6,10.6,0,0,1-10.17-7.5,1.75,1.75,0,1,1,3.34-1,7.15,7.15,0,0,0,13.66,0,1.75,1.75,0,1,1,3.34,1A10.6,10.6,0,0,1,57.81,94.93Z"/></g><path id="_Path_94" data-name="&lt;Path&gt;" class="cls-58" d="M61.2,76.71V64.5a3.31,3.31,0,1,0-6.62,0V76.73l-.15,0a2.55,2.55,0,1,0,.36,5.05,3.3,3.3,0,0,0,6.2,0l.21,0a2.54,2.54,0,0,0,0-5.09Z"/></g><g id="_Group_99" data-name="&lt;Group&gt;"><circle id="_Path_95" data-name="&lt;Path&gt;" class="cls-20" cx="41.78" cy="66.76" r="8.12"/><circle id="_Path_96" data-name="&lt;Path&gt;" class="cls-20" cx="75.01" cy="66.76" r="8.12"/><g id="_Group_100" data-name="&lt;Group&gt;"><g id="_Group_101" data-name="&lt;Group&gt;"><g id="_Group_102" data-name="&lt;Group&gt;"><g id="_Group_103" data-name="&lt;Group&gt;"><g id="_Group_104" data-name="&lt;Group&gt;"><circle id="_Path_97" data-name="&lt;Path&gt;" class="cls-2" cx="41.78" cy="66.76" r="3.18"/></g></g></g></g></g><g id="_Group_105" data-name="&lt;Group&gt;"><g id="_Group_106" data-name="&lt;Group&gt;"><g id="_Group_107" data-name="&lt;Group&gt;"><g id="_Group_108" data-name="&lt;Group&gt;"><g id="_Group_109" data-name="&lt;Group&gt;"><circle id="_Path_98" data-name="&lt;Path&gt;" class="cls-2" cx="75.01" cy="66.76" r="3.18"/></g></g></g></g></g><g id="_Group_110" data-name="&lt;Group&gt;"><g id="_Group_111" data-name="&lt;Group&gt;"><g id="_Group_112" data-name="&lt;Group&gt;"><circle id="_Path_99" data-name="&lt;Path&gt;" class="cls-15" cx="43.64" cy="64.32" r="1.85"/></g></g></g><g id="_Group_113" data-name="&lt;Group&gt;"><g id="_Group_114" data-name="&lt;Group&gt;"><g id="_Group_115" data-name="&lt;Group&gt;"><circle id="_Path_100" data-name="&lt;Path&gt;" class="cls-15" cx="76.86" cy="64.32" r="1.85"/></g></g></g></g><path class="cls-59" d="M197.71,121.43c-28.63,0-51.85,21-51.85,46.85V173H249.56v-4.72C249.56,142.41,226.35,121.43,197.71,121.43Z"/><g id="_Group_116" data-name="&lt;Group&gt;"><g id="_Group_117" data-name="&lt;Group&gt;"><g id="_Group_118" data-name="&lt;Group&gt;"><circle id="_Path_101" data-name="&lt;Path&gt;" class="cls-8" cx="233.97" cy="85.89" r="12.39"/></g><g id="_Group_119" data-name="&lt;Group&gt;" class="cls-9"><circle id="_Path_102" data-name="&lt;Path&gt;" class="cls-10" cx="233.97" cy="85.89" r="12.39"/></g><g id="_Group_120" data-name="&lt;Group&gt;"><path id="_Path_103" data-name="&lt;Path&gt;" class="cls-11" d="M239,93.33a2.43,2.43,0,0,1-1.73-.72l-10-10a2.44,2.44,0,1,1,3.45-3.45l10,10A2.44,2.44,0,0,1,239,93.33Z"/></g><g id="_Group_121" data-name="&lt;Group&gt;"><path id="_Path_104" data-name="&lt;Path&gt;" class="cls-11" d="M229,93.33a2.44,2.44,0,0,1-1.73-4.17l10-10a2.44,2.44,0,0,1,3.45,3.45l-10,10A2.43,2.43,0,0,1,229,93.33Z"/></g><g id="_Group_122" data-name="&lt;Group&gt;"><circle id="_Path_105" data-name="&lt;Path&gt;" class="cls-8" cx="161.37" cy="85.89" r="12.39"/></g><g id="_Group_123" data-name="&lt;Group&gt;" class="cls-9"><circle id="_Path_106" data-name="&lt;Path&gt;" class="cls-10" cx="161.37" cy="85.89" r="12.39"/></g><g id="_Group_124" data-name="&lt;Group&gt;"><path id="_Path_107" data-name="&lt;Path&gt;" class="cls-11" d="M166.36,93.33a2.43,2.43,0,0,1-1.73-.72l-10-10a2.44,2.44,0,0,1,3.45-3.45l10,10a2.44,2.44,0,0,1-1.73,4.17Z"/></g><g id="_Group_125" data-name="&lt;Group&gt;"><path id="_Path_108" data-name="&lt;Path&gt;" class="cls-11" d="M156.37,93.33a2.44,2.44,0,0,1-1.73-4.17l10-10a2.44,2.44,0,1,1,3.45,3.45l-10,10A2.43,2.43,0,0,1,156.37,93.33Z"/></g><g id="_Group_126" data-name="&lt;Group&gt;"><path id="_Path_109" data-name="&lt;Path&gt;" class="cls-8" d="M180.19,98.3v27.87h0a17.47,17.47,0,0,0,34.93,0h0V98.3Z"/></g><g id="_Clip_Group_9" data-name="&lt;Clip Group&gt;"><g class="cls-60"><g id="_Group_127" data-name="&lt;Group&gt;" class="cls-9"><path id="_Path_110" data-name="&lt;Path&gt;" class="cls-10" d="M220.22,50.2h-45.1a13.75,13.75,0,0,0-13.75,13.75V93.22a36.3,36.3,0,0,0,36.3,36.3h0A36.3,36.3,0,0,0,234,93.22V63.95A13.75,13.75,0,0,0,220.22,50.2Z"/></g></g></g><g id="_Group_128" data-name="&lt;Group&gt;"><path id="_Path_111" data-name="&lt;Path&gt;" class="cls-8" d="M220.22,41.92h-45.1a13.75,13.75,0,0,0-13.75,13.75v32a36.3,36.3,0,0,0,36.3,36.3h0A36.3,36.3,0,0,0,234,87.7v-32A13.75,13.75,0,0,0,220.22,41.92Z"/></g></g><path id="_Path_112" data-name="&lt;Path&gt;" class="cls-61" d="M234,73.5V55.67a13.75,13.75,0,0,0-13.75-13.75h-45.1a13.75,13.75,0,0,0-13.75,13.75V73.5a12.39,12.39,0,1,0,1.54,24.68,36.39,36.39,0,0,0,17.28,21.35v6.64h0a17.47,17.47,0,0,0,34.93,0h0v-6.64a36.39,36.39,0,0,0,17.29-21.35A12.39,12.39,0,1,0,234,73.5Z"/></g><g id="_Group_129" data-name="&lt;Group&gt;"><g id="_Group_130" data-name="&lt;Group&gt;"><path id="_Path_113" data-name="&lt;Path&gt;" class="cls-62" d="M189.65,79.13a1.1,1.1,0,0,1-1.1-1.1,8,8,0,0,0-15.91,0,1.1,1.1,0,0,1-2.21,0,10.16,10.16,0,0,1,20.33,0A1.1,1.1,0,0,1,189.65,79.13Z"/></g><g id="_Group_131" data-name="&lt;Group&gt;"><path id="_Path_114" data-name="&lt;Path&gt;" class="cls-62" d="M223.8,79.13a1.1,1.1,0,0,1-1.1-1.1,8,8,0,1,0-15.91,0,1.1,1.1,0,1,1-2.21,0,10.16,10.16,0,1,1,20.32,0A1.1,1.1,0,0,1,223.8,79.13Z"/></g></g><g id="_Group_132" data-name="&lt;Group&gt;"><path id="_Path_115" data-name="&lt;Path&gt;" class="cls-19" d="M209,102.46a11.89,11.89,0,0,1-22.71,0A2,2,0,0,1,187.6,100a1.66,1.66,0,0,1,.36-.07v0h19.34a2.07,2.07,0,0,1,.44.08A2,2,0,0,1,209,102.46Z"/><g id="_Clip_Group_10" data-name="&lt;Clip Group&gt;"><path id="_Clipping_Path_12" data-name="&lt;Clipping Path&gt;" class="cls-2" d="M209,102.46a11.89,11.89,0,0,1-22.71,0A2,2,0,0,1,187.6,100a1.66,1.66,0,0,1,.36-.07v0h19.34a2.07,2.07,0,0,1,.44.08A2,2,0,0,1,209,102.46Z"/><g class="cls-63"><path id="_Path_116" data-name="&lt;Path&gt;" class="cls-14" d="M186.31,113.81a11.89,11.89,0,0,1,22.71,0,2,2,0,0,1-1.29,2.44,1.66,1.66,0,0,1-.36.07v0H188a2.07,2.07,0,0,1-.44-.08A2,2,0,0,1,186.31,113.81Z"/></g></g><path id="_Rectangle_9" data-name="&lt;Rectangle&gt;" class="cls-15" d="M188.22,99.93h18.89a0,0,0,0,1,0,0v0a3.17,3.17,0,0,1-3.17,3.17H191.39a3.17,3.17,0,0,1-3.17-3.17v0A0,0,0,0,1,188.22,99.93Z"/></g><path id="_Path_117" data-name="&lt;Path&gt;" class="cls-62" d="M203.2,88.83h-1.09V75.05a4.41,4.41,0,1,0-8.83,0V88.83h-1.16a1.65,1.65,0,0,0-1.31,2.67,4.22,4.22,0,0,0,3,1.54,4.41,4.41,0,0,0,7.69,0,4.22,4.22,0,0,0,3-1.54A1.65,1.65,0,0,0,203.2,88.83Z"/><g id="_Group_133" data-name="&lt;Group&gt;"><path id="_Path_118" data-name="&lt;Path&gt;" class="cls-64" d="M232.33,44.17a10.84,10.84,0,0,0-10.8-10H188.15V25.94a14.87,14.87,0,0,0-9.29,3.25V21.92a17,17,0,0,0-16.07,22.36,15.18,15.18,0,0,0-5.32,11.56V77a12.3,12.3,0,0,1,1.93-.46v5a1.93,1.93,0,0,0,1.93,1.93V78.66h0V71.07a5.75,5.75,0,0,0,5.2-5.73V50.5a16.9,16.9,0,0,0,12.07,5.32h42.93a10.79,10.79,0,0,0,7.19-2.74V65.35a5.75,5.75,0,0,0,5.2,5.73v7.59h0v4.76a1.93,1.93,0,0,0,1.93-1.93v-5a12.3,12.3,0,0,1,1.93.47V55.84A15.18,15.18,0,0,0,232.33,44.17Z"/></g><path class="cls-65" d="M21.79,173V161.7a21.35,21.35,0,0,1,21.28-21.28H72.34A21.35,21.35,0,0,1,93.63,161.7V173Z"/><path class="cls-23" d="M81.76,173V129.16a7.42,7.42,0,0,0-7.4-7.4H41.69a7.42,7.42,0,0,0-7.4,7.4V173Z"/><circle class="cls-27" cx="58.02" cy="141.74" r="6.25"/><path class="cls-28" d="M42.72,152.46a5.06,5.06,0,0,0-2.63-4.62,5.06,5.06,0,0,0,2.63-4.62c0-2.74-1.87-5-4.15-5H32c-2.28,0-4.15,2.24-4.15,5a5.06,5.06,0,0,0,2.63,4.62,5.38,5.38,0,0,0,0,9.24,5.06,5.06,0,0,0-2.63,4.62c0,2.74,1.87,5,4.15,5h6.53c2.28,0,4.15-2.24,4.15-5a5.06,5.06,0,0,0-2.63-4.62A5.06,5.06,0,0,0,42.72,152.46Z"/><path class="cls-28" d="M87.38,152.46a5.06,5.06,0,0,0-2.63-4.62,5.06,5.06,0,0,0,2.63-4.62c0-2.74-1.87-5-4.15-5H76.7c-2.28,0-4.15,2.24-4.15,5a5.06,5.06,0,0,0,2.63,4.62,5.38,5.38,0,0,0,0,9.24,5.06,5.06,0,0,0-2.63,4.62c0,2.74,1.87,5,4.15,5h6.53c2.28,0,4.15-2.24,4.15-5a5.06,5.06,0,0,0-2.63-4.62A5.06,5.06,0,0,0,87.38,152.46Z"/></g></g></svg>